<svg width="512" height="512" xmlns="http://www.w3.org/2000/svg" version="1.1">
	<g>
		<title>Layer 1</title>
		<g stroke="null" id="svg_5">
			<path stroke="null" d="m243.33125,15.54755c5.73159,5.73159 9.39016,8.21879 16.46115,11.69309c71.52193,36.41692 67.26997,136.16711 16.2341,187.20298c4.88058,-1.05268 9.71434,-2.31911 14.53122,-3.6328c3.1005,-0.54436 6.20359,-1.07414 9.30906,-1.58935c8.02323,-1.58135 13.25062,-4.19454 19.75338,-9.30906c1.92936,-1.40487 3.85872,-2.80975 5.84655,-4.25719c55.93925,-45.28415 46.02669,-116.83459 -6.75475,-160.12723c-11.02063,-22.04126 41.28282,16.04143 48.13466,26.33784c2.66925,5.34208 5.12114,10.75573 7.5849,16.19507c9.9393,19.39482 38.5887,24.1238 57.63885,30.18705c41.24309,14.76484 25.23343,50.59006 -0.57118,71.40023c-18.7539,15.59059 -14.21023,36.61186 12.54453,36.61186c0.29971,-1.79824 0.59941,-3.59648 0.9082,-5.44921c9.59294,-15.3487 49.04287,-36.07626 49.04287,-4.54101c-9.73417,12.9789 -26.15156,20.88863 -42.68546,20.88863c5.02131,8.03409 5.98901,8.38071 14.53122,10.89841c34.09055,10.33047 19.26297,46.13763 -11.80662,42.68546c-6.49561,-6.49561 -0.81708,-4.54101 7.26561,-4.54101c19.8637,-8.27655 23.72342,-23.53795 0.9082,-30.31122c-10.2513,-3.3637 -15.96316,-7.78029 -19.98043,-17.82345c-4.22958,-0.66347 -8.46987,-1.25968 -12.71482,-1.8164c-41.00954,-13.80519 -20.26082,-46.23711 2.21374,-66.1284c28.02286,-25.71961 -3.55546,-36.40082 -26.89482,-43.21761c-6.2819,-2.08874 -11.3462,-4.57 -17.03942,-7.86871c-12.02611,-3.2992 -7.66193,10.02206 -7.32237,19.12899c-4.19273,30.74666 -21.3421,57.03454 -45.41006,76.2889c4.89088,0.56679 4.89088,0.56679 11.35252,0.51086c26.31905,0.57443 47.82168,5.99102 68.56919,23.10237c2.13541,1.74205 2.13541,1.74205 4.31396,3.51928c13.07265,12.68816 20.59813,29.31545 27.58661,45.86416c0.62048,1.43531 1.24098,2.87062 1.88026,4.34943c6.44725,15.13024 6.44725,15.13024 -2.90198,7.11661c-7.09407,-2.66028 -11.22974,-3.08049 -18.67489,-3.12549c-2.24626,-0.02261 -4.49253,-0.04522 -6.80685,-0.06851c-2.38046,-0.01368 -4.76092,-0.02736 -7.21351,-0.04146c-99.18343,-1.1557 -99.18343,-1.1557 -136.85457,-22.02388c-9.32053,-3.83787 -3.32983,1.88917 -0.84789,6.25453c12.84197,24.13373 19.1087,52.54376 18.80969,79.64854c-0.01855,3.50035 -0.03686,7.00071 -0.05498,10.50108c-0.03947,5.47232 -0.08346,10.94455 -0.13238,16.4168c-0.04404,5.31262 -0.07103,10.62513 -0.09645,15.93787c-0.01975,1.62098 -0.03952,3.24194 -0.05988,4.91204c-0.08027,20.40547 2.51982,47.90569 29.32454,35.99249c3.50441,1.75221 -33.53151,13.45467 -47.22646,7.26561c-65.93807,-33.9887 -70.61416,-121.44769 -32.94003,-176.15201c42.38368,-65.37315 -52.43884,-25.95863 -76.61174,-4.75032c-11.3845,9.26386 -22.51263,12.15656 -36.59057,15.1698c-6.02806,1.47025 -11.09886,3.61602 -16.42567,6.79731c-5.32413,2.66206 7.35645,-10.08105 8.17381,-10.89841c1.29248,-1.59219 2.58497,-3.18438 3.91662,-4.82482c15.87716,-19.26429 33.81368,-32.91546 59.19982,-34.62517c11.97054,-1.49502 -7.48765,-3.43361 -9.6248,-3.95209c-11.17702,-3.12868 -21.85823,-7.45904 -32.65268,-11.68955c-16.35351,-6.10578 -32.40819,-9.26528 -49.56792,-11.92014c-15.71147,-2.56963 -71.62517,-17.00316 -62.99937,-42.88058c1.79824,2.39765 3.59648,4.7953 5.44921,7.26561c21.96164,10.98082 47.90052,-7.51626 67.20689,-17.48997c42.87128,-20.05405 80.76083,-5.30031 113.52515,25.66378c1.29248,1.21755 2.58497,2.43511 3.91662,3.68957c3.70615,3.95741 6.66105,8.1796 9.7064,12.65805c5.78795,5.78795 4.08537,-7.41052 4.54101,-11.80662c2.10364,-19.10703 5.59265,-37.80909 9.5095,-56.61313c7.04157,-34.02441 5.85561,-62.99255 -2.24744,-96.47199c-2.01355,-8.51524 -6.6998,-34.92686 1.81995,-12.20751zm208.88628,200.71247c7.68835,-0.83367 32.61737,-4.8525 29.97064,-15.43942c-9.00921,-4.50461 -29.97064,3.79634 -29.97064,15.43942z" fill="#F47D1F" id="svg_1"/>
			<path stroke="null" d="m150.93951,289.38441c-18.03186,14.71585 -28.93728,33.27823 -28.56931,56.85127c0.02107,2.23902 0.04215,4.47803 0.06386,6.7849c0.07079,4.66873 0.14174,9.33744 0.21286,14.00616c0.10669,11.35323 -0.20856,21.56593 -2.83104,32.68993c21.41687,-17.48317 32.64715,-50.27646 38.78303,-76.04057c3.72542,-15.14853 3.72542,-15.14853 4.01596,-4.10818c1.33501,9.53579 6.10466,16.80577 11.35252,24.74848c29.6075,47.37198 -13.88095,77.13693 -54.54884,90.5505c-7.48961,2.62136 -13.76023,6.05292 -20.49129,10.25984c-2.7246,-0.9082 -2.7246,-0.9082 2.7246,-8.17381c4.07929,-12.23789 -4.84044,-21.78543 -12.71482,-29.97064c-46.33743,-48.62571 -12.64887,-90.03408 38.25798,-111.31141c33.33105,-13.94233 33.33105,-13.94233 23.74449,-6.28646zm-32.94003,111.24046c0.9082,1.8164 0.9082,1.8164 0.9082,1.8164l-0.9082,-1.8164z" fill="#3953A4" id="svg_2"/>
			<path stroke="null" d="m374.43151,78.06088c9.9393,19.39482 38.58869,24.1238 57.63885,30.18705c41.2431,14.76483 25.23344,50.59006 -0.57117,71.40023c-18.7539,15.59059 -14.21023,36.61186 12.54453,36.61186c0.29971,-1.79824 0.59941,-3.59648 0.9082,-5.44921c9.59293,-15.3487 49.04287,-36.07626 49.04287,-4.54101c-9.73417,12.9789 -26.15156,20.88863 -42.68546,20.88863c5.02131,8.03409 5.98901,8.38071 14.53122,10.89841c34.09054,10.33047 19.26297,46.13763 -11.80662,42.68546c-6.49561,-6.49561 -0.81708,-4.54101 7.26561,-4.54101c19.8637,-8.27655 23.72342,-23.53795 0.9082,-30.31122c-10.2513,-3.36371 -15.96316,-7.78029 -19.98043,-17.82345c-4.22958,-0.66347 -8.46987,-1.25968 -12.71482,-1.8164c-41.00955,-13.80519 -20.26083,-46.23711 2.21374,-66.1284c28.02286,-25.71961 -3.55546,-36.40082 -26.89482,-43.21761c-6.2819,-2.08874 -11.3462,-4.57 -17.03942,-7.86871c-12.02611,-3.2992 -7.66194,10.02206 -7.32237,19.12899c-5.16834,37.90109 -30.65166,79.92171 -71.7479,79.92171c3.6328,-3.6328 3.6328,-3.6328 8.23057,-6.5277c64.74606,-41.57379 57.37413,-120.41416 1.75964,-166.03054c-16.77447,-33.54894 47.14863,23.61056 55.71956,42.53291zm77.78602,138.19914c7.68835,-0.83367 32.61737,-4.8525 29.97064,-15.43942c-9.00921,-4.50461 -29.97064,3.79634 -29.97064,15.43942z" fill="#8A5D3A" id="svg_3"/>
			<path stroke="null" d="m229.54859,268.49224c-19.84779,28.48432 -32.59594,49.17121 -33.04291,84.59753c-0.37488,7.08279 -4.03369,24.69359 -4.03369,4.84965c-3.23518,-12.81629 -9.39529,-21.40508 -17.33387,-31.86509c-53.44545,-71.78599 103.62426,-127.19265 54.41048,-57.58208z" fill="#C7DA2C" id="svg_4"/>
		</g>
	</g>
</svg>