<svg width="800" height="800" xmlns="http://www.w3.org/2000/svg" version="1.1">
	<g transform="translate(80,80) scale(0.8)">
		<g stroke="null" id="svg_6">
			<title stroke="null">Layer 1</title>
			<g stroke="null" id="svg_5">
				<path stroke="null" id="svg_1" fill="#F47D1F" d="m384.49175,100.87993c7.5343,7.5343 12.34358,10.80379 21.63856,15.37084c94.01723,47.87089 88.42794,178.99482 21.3401,246.08265c6.41564,-1.38377 12.76972,-3.04852 19.10162,-4.7754c4.07568,-0.71557 8.15477,-1.41198 12.23697,-2.08924c10.54672,-2.07872 17.41825,-5.51382 25.96628,-12.23697c2.53619,-1.84674 5.07238,-3.69348 7.68542,-5.59617c73.53344,-59.52707 60.50315,-153.58177 -8.87927,-210.49095c-14.48687,-28.97375 54.26723,21.08683 63.27413,34.62171c3.50879,7.02229 6.73185,14.13865 9.97053,21.2888c13.06544,25.49494 50.72574,31.71129 75.76761,39.68158c54.215,19.40872 33.16992,66.50181 -0.75083,93.85725c-24.65243,20.49419 -18.67967,48.12714 16.49008,48.12714c0.39398,-2.36383 0.78794,-4.72766 1.19385,-7.16312c12.61014,-20.17622 64.46799,-47.42308 64.46799,-5.96926c-12.7958,17.06106 -34.37683,27.45859 -56.11102,27.45859c6.60063,10.561 7.87269,11.01663 19.10162,14.32621c44.81282,13.57965 25.32162,60.64899 -15.52007,56.11102c-8.53863,-8.53863 -1.07407,-5.96926 9.55082,-5.96926c26.1113,-10.87971 31.18499,-30.94118 1.19385,-39.8448c-13.47557,-4.42166 -20.98395,-10.22738 -26.26474,-23.42934c-5.55988,-0.87215 -11.13384,-1.65587 -16.71392,-2.3877c-53.90799,-18.14724 -26.63332,-60.77975 2.91001,-86.92731c36.8367,-33.80903 -4.67373,-47.84972 -35.35386,-56.81055c-8.25771,-2.7457 -14.91485,-6.00738 -22.39871,-10.3436c-15.8086,-4.33688 -10.07179,13.17423 -9.62543,25.1455c-5.51144,40.4172 -28.05468,74.97323 -59.69258,100.28353c6.42917,0.74506 6.42917,0.74506 14.92315,0.67153c34.597,0.75511 62.86271,7.87534 90.13579,30.3686c2.80705,2.28997 2.80705,2.28997 5.6708,4.62618c17.1843,16.67888 27.07672,38.53584 36.26324,60.2895c0.81564,1.88675 1.6313,3.77349 2.47165,5.71742c8.47506,19.88905 8.47506,19.88905 -3.81472,9.35495c-9.32532,-3.497 -14.76176,-4.04938 -24.54857,-4.10853c-2.95276,-0.02972 -5.90553,-0.05944 -8.94776,-0.09006c-3.12917,-0.01798 -6.25834,-0.03597 -9.48233,-0.0545c-130.37892,-1.51919 -130.37892,-1.51919 -179.89851,-28.9509c-12.25206,-5.04497 -4.37714,2.48336 -1.11457,8.22173c16.88107,31.72435 25.11883,69.07 24.72577,104.69986c-0.02438,4.60129 -0.04846,9.2026 -0.07227,13.80391c-0.05189,7.19349 -0.10971,14.38686 -0.17401,21.58027c-0.05789,6.98356 -0.09337,13.96698 -0.12678,20.9507c-0.02596,2.13082 -0.05195,4.26161 -0.07871,6.45699c-0.10551,26.82347 3.31236,62.97314 38.54779,47.31296c4.60663,2.30332 -44.07795,17.68647 -62.08028,9.55082c-86.67713,-44.67893 -92.82395,-159.6458 -43.30043,-231.55591c55.71433,-85.93452 -68.93207,-34.12322 -100.70791,-6.2444c-14.96519,12.17756 -29.59338,15.98008 -48.09915,19.94105c-7.92402,1.93268 -14.5897,4.75335 -21.59192,8.93523c-6.99869,3.49934 9.67022,-13.25178 10.74466,-14.32621c1.69899,-2.09297 3.398,-4.18594 5.14848,-6.34234c20.87089,-25.32335 44.44887,-43.26813 77.81953,-45.51559c15.73555,-1.96524 -9.84269,-4.51356 -12.65203,-5.19512c-14.69245,-4.11272 -28.73315,-9.80508 -42.9227,-15.36619c-21.49707,-8.02619 -42.60132,-12.17943 -65.15818,-15.6693c-20.65309,-3.37783 -94.15295,-22.35105 -82.81413,-56.36751c2.36383,3.15177 4.72766,6.30353 7.16312,9.55082c28.86908,14.43454 62.96635,-9.8803 88.34502,-22.99097c56.35529,-26.36151 106.16199,-6.96738 149.23144,33.73564c1.69899,1.6005 3.398,3.20101 5.14848,4.85002c4.87182,5.20211 8.7561,10.75228 12.75929,16.6393c7.60839,7.60839 5.37031,-9.7413 5.96926,-15.52007c2.76528,-25.11664 7.35166,-49.70093 12.50046,-74.41927c9.2563,-44.72587 7.69734,-82.80517 -2.95431,-126.81467c-2.64686,-11.19348 -8.80704,-45.91217 2.39237,-16.04706l-0.00004,0zm274.58586,263.84119c10.10652,-1.09588 42.87629,-6.37873 39.3971,-20.29548c-11.84281,-5.92141 -39.3971,4.99038 -39.3971,20.29548z"/>
				<path stroke="null" id="svg_2" fill="#3953A4" d="m263.04066,460.84483c-23.70329,19.34433 -38.03873,43.74501 -37.55502,74.73231c0.0277,2.94324 0.0554,5.88647 0.08395,8.91891c0.09305,6.13716 0.18632,12.27429 0.27981,18.41142c0.14024,14.92409 -0.27416,28.34892 -3.72147,42.97167c28.15297,-22.98203 42.91544,-66.08958 50.9812,-99.95709c4.89715,-19.9131 4.89715,-19.9131 5.27907,-5.4003c1.7549,12.53502 8.02472,22.09157 14.92315,32.53245c38.91974,62.27156 -18.24683,101.39828 -71.70571,119.03073c-9.84526,3.44583 -18.08814,7.95671 -26.93627,13.48679c-3.58155,-1.19385 -3.58155,-1.19385 3.58155,-10.74466c5.36232,-16.08699 -6.36287,-28.63745 -16.71392,-39.3971c-60.91163,-63.91963 -16.62723,-118.35188 50.291,-146.32143c43.81444,-18.32752 43.81444,-18.32752 31.21269,-8.2637l0,-0.00001l-0.00001,-0.00001zm-43.30043,146.22816c1.19385,2.3877 1.19385,2.3877 1.19385,2.3877l-1.19385,-2.3877z"/>
				<path stroke="null" id="svg_3" fill="#8A5D3A" d="m556.82608,183.05515c13.06544,25.49494 50.72572,31.71129 75.76761,39.68158c54.21501,19.40871 33.16994,66.50181 -0.75081,93.85725c-24.65243,20.49419 -18.67967,48.12714 16.49008,48.12714c0.39398,-2.36383 0.78794,-4.72766 1.19385,-7.16312c12.61013,-20.17622 64.46799,-47.42308 64.46799,-5.96926c-12.7958,17.06106 -34.37683,27.45859 -56.11102,27.45859c6.60063,10.561 7.87269,11.01663 19.10162,14.32621c44.81281,13.57965 25.32162,60.64899 -15.52007,56.11102c-8.53863,-8.53863 -1.07407,-5.96926 9.55082,-5.96926c26.1113,-10.87971 31.18499,-30.94118 1.19385,-39.8448c-13.47557,-4.42167 -20.98395,-10.22738 -26.26474,-23.42934c-5.55988,-0.87215 -11.13384,-1.65587 -16.71392,-2.3877c-53.90801,-18.14724 -26.63333,-60.77975 2.91001,-86.92731c36.8367,-33.80903 -4.67373,-47.84972 -35.35386,-56.81055c-8.25771,-2.7457 -14.91485,-6.00738 -22.39871,-10.3436c-15.8086,-4.33688 -10.0718,13.17423 -9.62543,25.1455c-6.79391,49.82186 -40.29232,105.05894 -94.31428,105.05894c4.7754,-4.7754 4.7754,-4.7754 10.81928,-8.58081c85.11019,-54.64971 75.41962,-158.28721 2.31308,-218.25099c-22.05043,-44.10086 61.97797,31.03663 73.24465,55.91049l0.00003,0.00001l-0.00002,0.00002zm102.25153,181.66598c10.10652,-1.09588 42.87629,-6.37873 39.3971,-20.29548c-11.84281,-5.92141 -39.3971,4.99038 -39.3971,20.29548z"/>
				<path stroke="null" id="svg_4" fill="#C7DA2C" d="m366.37413,433.38159c-26.09038,37.4433 -42.84812,64.6367 -43.43567,111.20542c-0.49278,9.3105 -5.30238,32.4603 -5.30238,6.37498c-4.25272,-16.84731 -12.35033,-28.13747 -22.78577,-41.8874c-70.25529,-94.36434 136.21649,-167.19769 71.52384,-75.69298l-0.00001,-0.00001l-0.00001,-0.00001z"/>
			</g>
		</g>
	</g>

</svg>